<svg
                        class="icon"
                            version="1.0"
                            xmlns="http://www.w3.org/2000/svg"
                            width="512.000000pt"
                            height="512.000000pt"
                            viewBox="0 0 512.000000 512.000000"
                            preserveAspectRatio="xMidYMid meet"
                        >
                            <g
                                transform="translate(0.000000,512.000000) scale(0.100000,-0.100000)"
                                fill="#f58235"
                                stroke="none"
                            >
                                <path
                                    d="M1105 4675 c-294 -64 -536 -281 -636 -573 l-34 -97 -3 -380 -3 -380
24 -45 c15 -30 40 -55 71 -75 41 -25 58 -29 116 -29 58 0 75 4 116 29 31 20
56 45 71 74 23 43 23 49 23 345 0 166 4 327 10 360 30 183 173 326 356 356 33
6 194 10 360 10 296 0 302 0 345 23 29 15 54 40 74 71 25 41 29 58 29 116 0
58 -4 75 -29 116 -20 31 -45 56 -74 71 -44 23 -46 23 -400 22 -253 0 -373 -4
-416 -14z"
                                />
                                <path
                                    d="M3200 4667 c-30 -15 -55 -40 -75 -71 -25 -41 -29 -58 -29 -116 0 -58
4 -75 29 -116 20 -31 45 -56 74 -71 43 -23 49 -23 345 -23 166 0 327 -4 360
-10 183 -30 326 -173 356 -356 6 -33 10 -194 10 -360 0 -296 0 -302 23 -345
15 -29 40 -54 71 -74 41 -25 58 -29 116 -29 58 0 75 4 116 29 31 20 56 45 71
75 l24 45 -3 380 -3 380 -33 95 c-47 136 -112 239 -212 340 -101 100 -204 165
-340 212 l-95 33 -380 3 -380 3 -45 -24z"
                                />
                                <path
                                    d="M1577 3696 c-55 -21 -103 -61 -134 -114 -24 -41 -28 -57 -28 -127 0
-89 13 -122 69 -178 53 -53 101 -72 181 -72 103 1 181 50 231 145 26 49 26
162 0 214 -24 47 -74 100 -119 122 -43 23 -152 28 -200 10z"
                                />
                                <path
                                    d="M3376 3700 c-107 -32 -185 -151 -173 -265 9 -89 61 -165 142 -208 54
-29 164 -30 220 -2 201 100 187 396 -22 471 -43 15 -123 17 -167 4z"
                                />
                                <path
                                    d="M2477 3505 c-50 -17 -85 -50 -108 -100 -17 -36 -19 -71 -19 -387 l0
-348 -118 0 c-76 0 -136 -5 -169 -15 -176 -52 -195 -314 -29 -391 49 -23 59
-24 306 -24 145 0 271 5 292 10 50 14 97 55 119 105 17 37 19 76 19 525 0 449
-2 488 -19 525 -43 97 -163 140 -274 100z"
                                />
                                <path
                                    d="M582 2021 c-55 -14 -108 -56 -131 -105 -22 -44 -22 -51 -19 -423 l3
-378 33 -95 c47 -136 112 -239 212 -340 101 -100 204 -165 340 -212 l95 -33
380 -3 380 -3 45 24 c30 15 55 40 75 71 25 41 29 58 29 116 0 58 -4 75 -29
116 -20 31 -45 56 -74 71 -43 23 -49 23 -345 23 -166 0 -327 4 -360 10 -183
30 -326 173 -356 356 -6 33 -10 194 -10 360 0 296 0 302 -23 345 -41 78 -152
123 -245 100z"
                                />
                                <path
                                    d="M4422 2021 c-54 -14 -108 -56 -131 -103 -20 -42 -21 -59 -21 -344 0
-164 -4 -325 -10 -358 -30 -183 -173 -326 -356 -356 -33 -6 -194 -10 -360 -10
-296 0 -302 0 -345 -23 -29 -15 -54 -40 -74 -71 -25 -41 -29 -58 -29 -116 0
-58 4 -75 29 -116 20 -31 45 -56 75 -71 l45 -24 380 3 380 3 97 34 c295 102
510 342 573 641 12 55 15 149 15 419 0 345 0 348 -23 392 -41 78 -152 123
-245 100z"
                                />
                                <path
                                    d="M1841 1849 c-77 -31 -141 -121 -141 -202 0 -89 45 -158 131 -202 70
-36 265 -101 370 -123 379 -82 729 -39 1064 130 94 47 111 61 136 110 29 56
24 114 -13 189 -59 116 -154 140 -294 74 -186 -87 -352 -119 -574 -112 -185 6
-292 30 -447 101 -104 48 -174 58 -232 35z"
                                />
                            </g>
                        </svg>