
<svg width="72" height="72" viewBox="0 0 72 72" fill="none" xmlns="http://www.w3.org/2000/svg">
<path fill-rule="evenodd" clip-rule="evenodd" d="M35.9984 2C17.2216 2 2 17.2216 2 35.9984C2 37.0357 2.78966 37.8885 3.80063 37.9886C4.08566 38.0175 4.37958 37.9856 4.66246 37.886C4.73918 37.8591 4.81376 37.8277 4.88589 37.792L4.89544 37.7872L14.5919 32.939C15.5799 32.445 15.9803 31.2437 15.4863 30.2557C14.9924 29.2677 13.791 28.8673 12.8031 29.3613L6.18238 32.6716C7.83753 17.6695 20.5552 6 35.9984 6C49.7312 6 61.3126 15.2231 64.8706 27.8186C65.1709 28.8816 66.276 29.4999 67.339 29.1996C68.402 28.8994 69.0203 27.7942 68.72 26.7313C64.6878 12.457 51.5671 2 35.9984 2ZM69.999 35.9983C69.999 54.7751 54.7774 69.9967 36.0007 69.9967C20.4319 69.9967 7.3112 59.5396 3.27903 45.2654C2.97876 44.2024 3.59705 43.0973 4.66003 42.797C5.723 42.4968 6.82813 43.1151 7.1284 44.178C10.6864 56.7736 22.2678 65.9967 36.0007 65.9967C51.4439 65.9967 64.1615 54.3272 65.8166 39.3251L59.196 42.6354C58.208 43.1294 57.0067 42.7289 56.5127 41.741C56.0187 40.753 56.4191 39.5517 57.4071 39.0577L67.1036 34.2095L67.107 34.2077C67.1832 34.1697 67.2622 34.1364 67.3435 34.1082C67.623 34.011 67.9131 33.9797 68.1946 34.0077C69.2074 34.1061 69.999 34.9597 69.999 35.9983ZM36 18C37.1046 18 38 18.8954 38 20V23.8182H43.0833C44.1879 23.8182 45.0833 24.7136 45.0833 25.8182C45.0833 26.9227 44.1879 27.8182 43.0833 27.8182H38V34H39.5417C43.4341 34 46.5 37.2248 46.5 41.0909C46.5 44.957 43.4341 48.1818 39.5417 48.1818H38V52C38 53.1046 37.1046 54 36 54C34.8954 54 34 53.1046 34 52V48.1818H27.5C26.3954 48.1818 25.5 47.2864 25.5 46.1818C25.5 45.0772 26.3954 44.1818 27.5 44.1818H34V38H32.4583C28.5659 38 25.5 34.7752 25.5 30.9091C25.5 27.043 28.5659 23.8182 32.4583 23.8182H34V20C34 18.8954 34.8954 18 36 18ZM34 27.8182H32.4583C30.8739 27.8182 29.5 29.1519 29.5 30.9091C29.5 32.6662 30.8739 34 32.4583 34H34V27.8182ZM38 38V44.1818H39.5417C41.1261 44.1818 42.5 42.848 42.5 41.0909C42.5 39.3338 41.1261 38 39.5417 38H38Z" fill="#FF6900"/>
<circle opacity="0.3" cx="36" cy="36" r="28" fill="url(#paint0_linear_5606_11826)"/>
<defs>
<linearGradient id="paint0_linear_5606_11826" x1="8" y1="8" x2="64" y2="64" gradientUnits="userSpaceOnUse">
<stop stop-color="#FF6900" stop-opacity="0.3"/>
<stop offset="1" stop-color="#FF5736"/>
</linearGradient>
</defs>
</svg>
