<svg xmlns="http://www.w3.org/2000/svg" width="20" height="20" viewBox="0 0 72 72" fill="none">
    <g id="currency-cnyt-white">
    <path id="currency-cnyt-white_2" fill-rule="evenodd" clip-rule="evenodd" d="M36 72C55.8823 72 72 55.8823 72 36C72 16.1177 55.8823 0 36 0C16.1177 0 0 16.1177 0 36C0 55.8823 16.1177 72 36 72ZM29 24C22.3726 24 17 29.3726 17 36C17 42.6274 22.3726 48 29 48H41V56H29C17.9543 56 9 47.0457 9 36C9 24.9543 17.9543 16 29 16V24ZM33 16H37H49C55.6274 16 61 21.3726 61 28V56H53V28C53 25.7909 51.2091 24 49 24H41V44H33V20V16Z" fill="white"></path>
    </g>
</svg>